<?xml version="1.0" encoding="UTF-8"?>
<svg id="line" xmlns="http://www.w3.org/2000/svg" width="16" height="16" viewBox="0 0 16 16">
  <g>
    <path d="m12,7c.343,0,.677.035,1,.101v-2.101h-1v2Z" fill="#424242"/>
    <path d="m15.5,8.435v-.935h-1.357c.502.24.964.55,1.357.935Z" fill="#424242"/>
    <polygon points="1.646 2.354 3.293 4 0 4 0 5 3.293 5 1.646 6.646 2.354 7.354 4.854 4.854 4.854 4.146 2.354 1.646 1.646 2.354" fill="#424242"/>
    <path d="m8.023,15h-1.023V1h4v2h1V.5l-.5-.5h-5l-.5.5v15l.5.5h2.527c-.382-.284-.718-.62-1.005-1Z" fill="#424242"/>
    <polygon points="3.354 9.354 2.646 8.646 .146 11.146 .146 11.854 2.646 14.354 3.354 13.646 1.707 12 4.5 12 4.5 11 1.707 11 3.354 9.354" fill="#424242"/>
  </g>
  <path d="m12,8c-2.209,0-4,1.791-4,4s1.791,4,4,4,4-1.791,4-4-1.791-4-4-4Zm2.121,5.414l-.707.707-1.414-1.414-1.414,1.414-.707-.707,1.414-1.414-1.414-1.414.707-.707,1.414,1.414,1.414-1.414.707.707-1.414,1.414,1.414,1.414Z" fill="#a1260d" fill-rule="evenodd"/>
</svg>